<svg viewBox="0 0 100 100" width="84" height="84" data-om-id="jsx:/Inline Babel script:15976:293:9" xmlns="http://www.w3.org/2000/svg"><defs><filter id="wc-edge" x="-15%" y="-15%" width="130%" height="130%"><feTurbulence type="fractalNoise" baseFrequency="0.018" numOctaves="2" seed="3"></feTurbulence><feDisplacementMap in="SourceGraphic" scale="3.4"></feDisplacementMap></filter><filter id="wc-edge-soft" x="-15%" y="-15%" width="130%" height="130%"><feTurbulence type="fractalNoise" baseFrequency="0.04" numOctaves="2" seed="7"></feTurbulence><feDisplacementMap in="SourceGraphic" scale="1.8"></feDisplacementMap></filter><filter id="wc-edge-rough" x="-15%" y="-15%" width="130%" height="130%"><feTurbulence type="fractalNoise" baseFrequency="0.012" numOctaves="3" seed="11"></feTurbulence><feDisplacementMap in="SourceGraphic" scale="5"></feDisplacementMap></filter></defs><g data-om-id="jsx:/Inline Babel script:5359:106:5"><path d="M 30 54 L 70 54 L 64 80 L 36 80 Z" fill="#3d5a7f" opacity="0.88" filter="url(#wc-edge)" data-om-id="jsx:/Inline Babel script:612:18:10"></path><path d="M 28 48 L 72 48 L 70 56 L 30 56 Z" fill="#1f3650" opacity="0.7" filter="url(#wc-edge-soft)" data-om-id="jsx:/Inline Babel script:612:18:10"></path><path d="M 50 48 Q 36 40 34 26 Q 48 26 50 42 Q 52 26 66 26 Q 64 40 50 48 Z" fill="#3d5a7f" opacity="0.8" filter="url(#wc-edge-soft)" data-om-id="jsx:/Inline Babel script:612:18:10"></path><path d="M 30 54 L 70 54 L 64 80 L 36 80 Z" stroke="#1f2e1c" stroke-width="2.4" fill="none" stroke-linecap="round" stroke-linejoin="round" opacity="1" filter="url(#wc-edge-soft)" data-om-id="jsx:/Inline Babel script:941:22:10"></path><path d="M 27 48 L 73 48 L 70 56 L 30 56 Z" stroke="#1f2e1c" stroke-width="2.1" fill="none" stroke-linecap="round" stroke-linejoin="round" opacity="1" filter="url(#wc-edge-soft)" data-om-id="jsx:/Inline Babel script:941:22:10"></path><path d="M 50 50 Q 36 40 34 26 Q 48 26 50 44" stroke="#1f2e1c" stroke-width="1.9" fill="none" stroke-linecap="round" stroke-linejoin="round" opacity="1" filter="url(#wc-edge-soft)" data-om-id="jsx:/Inline Babel script:941:22:10"></path><path d="M 50 44 Q 52 28 66 26 Q 64 42 50 50" stroke="#1f2e1c" stroke-width="1.9" fill="none" stroke-linecap="round" stroke-linejoin="round" opacity="1" filter="url(#wc-edge-soft)" data-om-id="jsx:/Inline Babel script:941:22:10"></path></g></svg>