<svg viewBox="0 0 100 100" width="84" height="84" data-om-id="jsx:/Inline Babel script:15976:293:9" xmlns="http://www.w3.org/2000/svg"><defs><filter id="wc-edge" x="-15%" y="-15%" width="130%" height="130%"><feTurbulence type="fractalNoise" baseFrequency="0.018" numOctaves="2" seed="3"></feTurbulence><feDisplacementMap in="SourceGraphic" scale="3.4"></feDisplacementMap></filter><filter id="wc-edge-soft" x="-15%" y="-15%" width="130%" height="130%"><feTurbulence type="fractalNoise" baseFrequency="0.04" numOctaves="2" seed="7"></feTurbulence><feDisplacementMap in="SourceGraphic" scale="1.8"></feDisplacementMap></filter><filter id="wc-edge-rough" x="-15%" y="-15%" width="130%" height="130%"><feTurbulence type="fractalNoise" baseFrequency="0.012" numOctaves="3" seed="11"></feTurbulence><feDisplacementMap in="SourceGraphic" scale="5"></feDisplacementMap></filter></defs><g data-om-id="jsx:/Inline Babel script:7101:137:5"><path d="M 38 80 Q 30 60 34 44 Q 36 36 42 38 L 44 54 L 46 30 Q 48 24 54 26 L 54 50 L 58 28 Q 64 24 68 30 L 66 52 L 70 38 Q 76 36 76 44 Q 78 62 70 78 Z" fill="#3d5a7f" opacity="0.85" filter="url(#wc-edge)" data-om-id="jsx:/Inline Babel script:612:18:10"></path><path d="M 38 80 Q 30 60 34 44 Q 36 36 42 38 L 44 54" stroke="#1f2e1c" stroke-width="2.1" fill="none" stroke-linecap="round" stroke-linejoin="round" opacity="1" filter="url(#wc-edge-soft)" data-om-id="jsx:/Inline Babel script:941:22:10"></path><path d="M 44 54 L 46 30 Q 48 24 54 26 L 54 50" stroke="#1f2e1c" stroke-width="2.1" fill="none" stroke-linecap="round" stroke-linejoin="round" opacity="1" filter="url(#wc-edge-soft)" data-om-id="jsx:/Inline Babel script:941:22:10"></path><path d="M 54 50 L 58 28 Q 64 24 68 30 L 66 52" stroke="#1f2e1c" stroke-width="2.1" fill="none" stroke-linecap="round" stroke-linejoin="round" opacity="1" filter="url(#wc-edge-soft)" data-om-id="jsx:/Inline Babel script:941:22:10"></path><path d="M 66 52 L 70 40 Q 76 36 76 46 Q 78 62 70 78" stroke="#1f2e1c" stroke-width="2.1" fill="none" stroke-linecap="round" stroke-linejoin="round" opacity="1" filter="url(#wc-edge-soft)" data-om-id="jsx:/Inline Babel script:941:22:10"></path><path d="M 78 30 Q 84 28 86 34" stroke="#1f2e1c" stroke-width="1.8" fill="none" stroke-linecap="round" stroke-linejoin="round" opacity="0.5" filter="url(#wc-edge-soft)" data-om-id="jsx:/Inline Babel script:941:22:10"></path><path d="M 80 22 Q 86 22 88 26" stroke="#1f2e1c" stroke-width="1.8" fill="none" stroke-linecap="round" stroke-linejoin="round" opacity="0.4" filter="url(#wc-edge-soft)" data-om-id="jsx:/Inline Babel script:941:22:10"></path></g></svg>