<svg viewBox="0 0 100 100" width="84" height="84" data-om-id="jsx:/Inline Babel script:15976:293:9" xmlns="http://www.w3.org/2000/svg"><defs><filter id="wc-edge" x="-15%" y="-15%" width="130%" height="130%"><feTurbulence type="fractalNoise" baseFrequency="0.018" numOctaves="2" seed="3"></feTurbulence><feDisplacementMap in="SourceGraphic" scale="3.4"></feDisplacementMap></filter><filter id="wc-edge-soft" x="-15%" y="-15%" width="130%" height="130%"><feTurbulence type="fractalNoise" baseFrequency="0.04" numOctaves="2" seed="7"></feTurbulence><feDisplacementMap in="SourceGraphic" scale="1.8"></feDisplacementMap></filter><filter id="wc-edge-rough" x="-15%" y="-15%" width="130%" height="130%"><feTurbulence type="fractalNoise" baseFrequency="0.012" numOctaves="3" seed="11"></feTurbulence><feDisplacementMap in="SourceGraphic" scale="5"></feDisplacementMap></filter></defs><g data-om-id="jsx:/Inline Babel script:7809:148:5"><path d="M 50 78 Q 22 58 22 40 Q 22 26 36 26 Q 47 26 50 38 Q 53 26 64 26 Q 78 26 78 40 Q 78 58 50 78 Z" fill="#7c8c4f" opacity="0.88" filter="url(#wc-edge)" data-om-id="jsx:/Inline Babel script:612:18:10"></path><path d="M 50 70 Q 32 56 31 42 Q 31 34 40 36 Q 46 38 50 48 Z" fill="#43542a" opacity="0.4" filter="url(#wc-edge-soft)" data-om-id="jsx:/Inline Babel script:612:18:10"></path><path d="M 50 78 Q 22 58 22 40 Q 22 26 36 26 Q 47 26 50 38 Q 53 26 64 26 Q 78 26 78 40 Q 78 58 50 78 Z" stroke="#1f2e1c" stroke-width="2.4" fill="none" stroke-linecap="round" stroke-linejoin="round" opacity="1" filter="url(#wc-edge-soft)" data-om-id="jsx:/Inline Babel script:941:22:10"></path></g></svg>