<svg viewBox="0 0 100 100" width="84" height="84" data-om-id="jsx:/Inline Babel script:15976:293:9" xmlns="http://www.w3.org/2000/svg"><defs><filter id="wc-edge" x="-15%" y="-15%" width="130%" height="130%"><feTurbulence type="fractalNoise" baseFrequency="0.018" numOctaves="2" seed="3"></feTurbulence><feDisplacementMap in="SourceGraphic" scale="3.4"></feDisplacementMap></filter><filter id="wc-edge-soft" x="-15%" y="-15%" width="130%" height="130%"><feTurbulence type="fractalNoise" baseFrequency="0.04" numOctaves="2" seed="7"></feTurbulence><feDisplacementMap in="SourceGraphic" scale="1.8"></feDisplacementMap></filter><filter id="wc-edge-rough" x="-15%" y="-15%" width="130%" height="130%"><feTurbulence type="fractalNoise" baseFrequency="0.012" numOctaves="3" seed="11"></feTurbulence><feDisplacementMap in="SourceGraphic" scale="5"></feDisplacementMap></filter></defs><g data-om-id="jsx:/Inline Babel script:8300:155:5"><path d="M 18 54 Q 30 44 50 44 Q 70 44 82 54 Q 76 72 50 72 Q 24 72 18 54 Z" fill="#7c8c4f" opacity="0.85" filter="url(#wc-edge)" data-om-id="jsx:/Inline Babel script:612:18:10"></path><circle cx="50" cy="40" r="11" fill="#43542a" opacity="0.6" filter="url(#wc-edge-soft)" data-om-id="jsx:/Inline Babel script:502:17:25"></circle><path d="M 18 54 Q 30 44 50 44 Q 70 44 82 54" stroke="#1f2e1c" stroke-width="2.4" fill="none" stroke-linecap="round" stroke-linejoin="round" opacity="1" filter="url(#wc-edge-soft)" data-om-id="jsx:/Inline Babel script:941:22:10"></path><path d="M 20 54 Q 26 70 50 70 Q 74 70 80 54" stroke="#1f2e1c" stroke-width="2" fill="none" stroke-linecap="round" stroke-linejoin="round" opacity="0.7" filter="url(#wc-edge-soft)" data-om-id="jsx:/Inline Babel script:941:22:10"></path><circle cx="50" cy="40" r="11" fill="none" stroke="#1f2e1c" stroke-width="2.1" opacity="1" filter="url(#wc-edge-soft)" data-om-id="jsx:/Inline Babel script:802:21:25"></circle><path d="M 30 56 L 26 64 M 38 58 L 35 67 M 62 58 L 65 67 M 70 56 L 74 64" stroke="#1f2e1c" stroke-width="1.6" fill="none" stroke-linecap="round" stroke-linejoin="round" opacity="0.6" filter="url(#wc-edge-soft)" data-om-id="jsx:/Inline Babel script:941:22:10"></path></g></svg>