<svg viewBox="0 0 100 100" width="84" height="84" data-om-id="jsx:/Inline Babel script:15976:293:9" xmlns="http://www.w3.org/2000/svg"><defs><filter id="wc-edge" x="-15%" y="-15%" width="130%" height="130%"><feTurbulence type="fractalNoise" baseFrequency="0.018" numOctaves="2" seed="3"></feTurbulence><feDisplacementMap in="SourceGraphic" scale="3.4"></feDisplacementMap></filter><filter id="wc-edge-soft" x="-15%" y="-15%" width="130%" height="130%"><feTurbulence type="fractalNoise" baseFrequency="0.04" numOctaves="2" seed="7"></feTurbulence><feDisplacementMap in="SourceGraphic" scale="1.8"></feDisplacementMap></filter><filter id="wc-edge-rough" x="-15%" y="-15%" width="130%" height="130%"><feTurbulence type="fractalNoise" baseFrequency="0.012" numOctaves="3" seed="11"></feTurbulence><feDisplacementMap in="SourceGraphic" scale="5"></feDisplacementMap></filter></defs><g data-om-id="jsx:/Inline Babel script:8912:165:5"><path d="M 50 22 Q 68 30 76 30 Q 76 58 50 78 Q 24 58 24 30 Q 32 30 50 22 Z" fill="#d49a4a" opacity="0.85" filter="url(#wc-edge)" data-om-id="jsx:/Inline Babel script:612:18:10"></path><path d="M 50 30 Q 62 35 68 35 Q 68 55 50 70 Z" fill="#b87d2e" opacity="0.4" filter="url(#wc-edge-soft)" data-om-id="jsx:/Inline Babel script:612:18:10"></path><path d="M 50 22 Q 68 30 76 30 Q 76 58 50 78 Q 24 58 24 30 Q 32 30 50 22 Z" stroke="#1f2e1c" stroke-width="2.4" fill="none" stroke-linecap="round" stroke-linejoin="round" opacity="1" filter="url(#wc-edge-soft)" data-om-id="jsx:/Inline Babel script:941:22:10"></path><path d="M 40 48 L 47 56 L 62 38" stroke="#1f2e1c" stroke-width="2.4" fill="none" stroke-linecap="round" stroke-linejoin="round" opacity="1" filter="url(#wc-edge-soft)" data-om-id="jsx:/Inline Babel script:941:22:10"></path></g></svg>