<svg viewBox="0 0 100 100" width="84" height="84" data-om-id="jsx:/Inline Babel script:15976:293:9" xmlns="http://www.w3.org/2000/svg"><defs><filter id="wc-edge" x="-15%" y="-15%" width="130%" height="130%"><feTurbulence type="fractalNoise" baseFrequency="0.018" numOctaves="2" seed="3"></feTurbulence><feDisplacementMap in="SourceGraphic" scale="3.4"></feDisplacementMap></filter><filter id="wc-edge-soft" x="-15%" y="-15%" width="130%" height="130%"><feTurbulence type="fractalNoise" baseFrequency="0.04" numOctaves="2" seed="7"></feTurbulence><feDisplacementMap in="SourceGraphic" scale="1.8"></feDisplacementMap></filter><filter id="wc-edge-rough" x="-15%" y="-15%" width="130%" height="130%"><feTurbulence type="fractalNoise" baseFrequency="0.012" numOctaves="3" seed="11"></feTurbulence><feDisplacementMap in="SourceGraphic" scale="5"></feDisplacementMap></filter></defs><g data-om-id="jsx:/Inline Babel script:11356:208:5"><path d="M 20 30 Q 36 26 50 32 L 50 76 Q 36 70 20 74 Z" fill="#d49a4a" opacity="0.85" filter="url(#wc-edge)" data-om-id="jsx:/Inline Babel script:612:18:10"></path><path d="M 80 30 Q 64 26 50 32 L 50 76 Q 64 70 80 74 Z" fill="#b87d2e" opacity="0.6" filter="url(#wc-edge-soft)" data-om-id="jsx:/Inline Babel script:612:18:10"></path><path d="M 20 30 Q 36 26 50 32 Q 64 26 80 30 L 80 74 Q 64 70 50 76 Q 36 70 20 74 Z" stroke="#1f2e1c" stroke-width="2.4" fill="none" stroke-linecap="round" stroke-linejoin="round" opacity="1" filter="url(#wc-edge-soft)" data-om-id="jsx:/Inline Babel script:941:22:10"></path><path d="M 50 32 L 50 76" stroke="#1f2e1c" stroke-width="2.1" fill="none" stroke-linecap="round" stroke-linejoin="round" opacity="1" filter="url(#wc-edge-soft)" data-om-id="jsx:/Inline Babel script:941:22:10"></path><path d="M 28 42 L 42 40 M 28 52 L 42 50" stroke="#1f2e1c" stroke-width="1.4" fill="none" stroke-linecap="round" stroke-linejoin="round" opacity="0.55" filter="url(#wc-edge-soft)" data-om-id="jsx:/Inline Babel script:941:22:10"></path><path d="M 58 40 L 72 42 M 58 50 L 72 52" stroke="#1f2e1c" stroke-width="1.4" fill="none" stroke-linecap="round" stroke-linejoin="round" opacity="0.55" filter="url(#wc-edge-soft)" data-om-id="jsx:/Inline Babel script:941:22:10"></path></g></svg>