<svg viewBox="0 0 100 100" width="84" height="84" data-om-id="jsx:/Inline Babel script:15976:293:9" xmlns="http://www.w3.org/2000/svg"><defs><filter id="wc-edge" x="-15%" y="-15%" width="130%" height="130%"><feTurbulence type="fractalNoise" baseFrequency="0.018" numOctaves="2" seed="3"></feTurbulence><feDisplacementMap in="SourceGraphic" scale="3.4"></feDisplacementMap></filter><filter id="wc-edge-soft" x="-15%" y="-15%" width="130%" height="130%"><feTurbulence type="fractalNoise" baseFrequency="0.04" numOctaves="2" seed="7"></feTurbulence><feDisplacementMap in="SourceGraphic" scale="1.8"></feDisplacementMap></filter><filter id="wc-edge-rough" x="-15%" y="-15%" width="130%" height="130%"><feTurbulence type="fractalNoise" baseFrequency="0.012" numOctaves="3" seed="11"></feTurbulence><feDisplacementMap in="SourceGraphic" scale="5"></feDisplacementMap></filter></defs><g data-om-id="jsx:/Inline Babel script:4243:84:5"><path d="M 26 38 Q 50 22 74 38 L 70 44 Q 50 32 30 44 Z" fill="#d49a4a" opacity="0.85" filter="url(#wc-edge)" data-om-id="jsx:/Inline Babel script:612:18:10"></path><path d="M 74 62 Q 50 78 26 62 L 30 56 Q 50 68 70 56 Z" fill="#b87d2e" opacity="0.7" filter="url(#wc-edge-soft)" data-om-id="jsx:/Inline Babel script:612:18:10"></path><path d="M 24 42 Q 46 22 72 36" stroke="#1f2e1c" stroke-width="2.2" fill="none" stroke-linecap="round" stroke-linejoin="round" opacity="1" filter="url(#wc-edge-soft)" data-om-id="jsx:/Inline Babel script:941:22:10"></path><path d="M 72 36 L 62 36 M 72 36 L 72 46" stroke="#1f2e1c" stroke-width="2.2" fill="none" stroke-linecap="round" stroke-linejoin="round" opacity="1" filter="url(#wc-edge-soft)" data-om-id="jsx:/Inline Babel script:941:22:10"></path><path d="M 76 58 Q 54 78 28 64" stroke="#1f2e1c" stroke-width="2.2" fill="none" stroke-linecap="round" stroke-linejoin="round" opacity="1" filter="url(#wc-edge-soft)" data-om-id="jsx:/Inline Babel script:941:22:10"></path><path d="M 28 64 L 38 64 M 28 64 L 28 54" stroke="#1f2e1c" stroke-width="2.2" fill="none" stroke-linecap="round" stroke-linejoin="round" opacity="1" filter="url(#wc-edge-soft)" data-om-id="jsx:/Inline Babel script:941:22:10"></path></g></svg>